HIERARCHY
ROOT Hips
{
    OFFSET 0.000000 0.000000 0.000000
    CHANNELS 6 Xposition Yposition Zposition Zrotation Xrotation Yrotation
    JOINT Spine
    {
        OFFSET -0.000000 0.081343 0.000000
        CHANNELS 3 Zrotation Xrotation Yrotation
        JOINT Spine1
        {
            OFFSET -0.000000 0.243280 0.000000
            CHANNELS 3 Zrotation Xrotation Yrotation
            JOINT Neck
            {
                OFFSET -0.000000 0.242281 0.022026
                CHANNELS 3 Zrotation Xrotation Yrotation
                JOINT Head
                {
                    OFFSET -0.000000 0.149025 -0.021289
                    CHANNELS 3 Zrotation Xrotation Yrotation
                    End Site
                    {
                        OFFSET -0.000000 0.198396 0.000000
                    }
                }
            }
            JOINT LeftShoulder
            {
                OFFSET 0.039707 0.224479 -0.002125
                CHANNELS 3 Zrotation Xrotation Yrotation
                JOINT LeftArm
                {
                    OFFSET 0.116942 0.000000 0.000000
                    CHANNELS 3 Zrotation Xrotation Yrotation
                    JOINT LeftForeArm
                    {
                        OFFSET 0.282002 0.000000 0.000000
                        CHANNELS 3 Zrotation Xrotation Yrotation
                        JOINT LeftHand
                        {
                            OFFSET 0.358743 0.000000 0.000000
                            CHANNELS 3 Zrotation Xrotation Yrotation
                            End Site
                            {
                                OFFSET 0.148797 0.000000 0.000000
                            }
                        }
                    }
                }
            }
            JOINT RightShoulder
            {
                OFFSET -0.039404 0.224479 -0.002125
                CHANNELS 3 Zrotation Xrotation Yrotation
                JOINT RightArm
                {
                    OFFSET -0.116942 0.000000 0.000000
                    CHANNELS 3 Zrotation Xrotation Yrotation
                    JOINT RightForeArm
                    {
                        OFFSET -0.282002 0.000000 0.000000
                        CHANNELS 3 Zrotation Xrotation Yrotation
                        JOINT RightHand
                        {
                            OFFSET -0.358743 0.000000 0.000000
                            CHANNELS 3 Zrotation Xrotation Yrotation
                            End Site
                            {
                                OFFSET -0.148797 0.000000 0.000000
                            }
                        }
                    }
                }
            }
        }
    }
    JOINT LeftUpLeg
    {
        OFFSET 0.099198 0.000000 0.000000
        CHANNELS 3 Zrotation Xrotation Yrotation
        JOINT LeftLeg
        {
            OFFSET -0.000000 -0.332973 0.000000
            CHANNELS 3 Zrotation Xrotation Yrotation
            JOINT LeftFoot
            {
                OFFSET -0.000000 -0.491254 0.000000
                CHANNELS 3 Zrotation Xrotation Yrotation
                JOINT LeftToeBase
                {
                    OFFSET -0.000000 -0.064479 0.148797
                    CHANNELS 3 Zrotation Xrotation Yrotation
                    End Site
                    {
                        OFFSET -0.000000 0.000000 0.039679
                    }
                }
            }
        }
    }
    JOINT RightUpLeg
    {
        OFFSET -0.099198 0.000000 0.000000
        CHANNELS 3 Zrotation Xrotation Yrotation
        JOINT RightLeg
        {
            OFFSET -0.000000 -0.332973 0.000000
            CHANNELS 3 Zrotation Xrotation Yrotation
            JOINT RightFoot
            {
                OFFSET -0.000000 -0.491254 0.000000
                CHANNELS 3 Zrotation Xrotation Yrotation
                JOINT RightToeBase
                {
                    OFFSET -0.000000 -0.064479 0.148797
                    CHANNELS 3 Zrotation Xrotation Yrotation
                    End Site
                    {
                        OFFSET -0.000000 0.000000 0.039679
                    }
                }
            }
        }
    }
}
MOTION
Frames:    7
Frame Time:    0.010000
-0.588506    0.841606    0.711133    -12.990802    -1.685254    -82.253426    5.394142    7.083324    1.172708    -13.186760    11.930537    1.886081    21.470232    1.963223    22.489355    -17.123993    4.530067    18.906324    1.924227    15.659552    -15.600800    -25.082163    4.657568    -23.066944    32.657192    3.972180    -25.018595    61.754436    -3.354026    -24.229891    -7.488043    2.989737    24.421074    18.696672    19.133474    57.482433    32.855705    0.078530    72.599380    35.579273    -25.339972    -3.331747    31.532520    -1.297593    10.309906    -21.403971    28.082674    13.721828    -13.416361    -9.602511    18.697847    0.000000    0.000000    0.000000    -26.797007    -6.961248    -16.961639    7.890752    38.001102    -7.024989    21.417194    1.180595    1.352017    0.000000    0.000000    0.000000    
-0.589173    0.841428    0.711770    -12.881083    -1.412943    -82.725182    5.553209    7.115742    1.756679    -13.260865    11.644690    2.058075    22.601639    1.902861    22.213129    -18.057198    5.506112    18.510843    1.372290    16.367579    -13.814916    -26.332043    7.656485    -23.468109    38.903767    -2.783390    -28.055899    58.074181    -2.126611    -16.913454    -6.936646    3.928793    24.320995    18.466543    21.591499    55.505280    30.113428    -1.916777    75.975021    41.335613    -25.655672    -0.540970    31.876818    -1.075303    10.570264    -21.670103    28.036787    14.155336    -13.412280    -9.685393    18.468773    0.000000    0.000000    0.000000    -26.695820    -7.153517    -17.230049    7.746406    37.898445    -6.629370    21.335217    1.388397    1.644729    0.000000    0.000000    0.000000    
-0.589709    0.841378    0.711942    -12.731243    -1.142863    -83.004623    5.592598    7.004165    2.114035    -13.122204    11.620889    2.158559    22.423576    2.013736    22.082878    -17.544580    5.387761    18.448391    0.157703    15.154607    -11.321186    -27.930685    10.444150    -23.591120    45.544083    -5.550323    -30.491234    55.864120    -0.810318    -15.751033    -6.561695    5.304641    24.288982    18.593712    23.541386    53.323296    27.766775    -3.861091    79.446068    44.125717    -25.715403    2.744570    32.326653    -0.842582    10.773975    -22.076389    27.835737    13.740566    -13.198435    -9.965658    18.919262    0.000000    0.000000    0.000000    -26.490257    -7.215015    -17.557865    7.575306    37.677803    -5.554359    21.256456    1.148634    1.194191    0.000000    0.000000    0.000000    
-0.588322    0.839760    0.715118    -11.708101    -1.603849    -83.242355    5.077292    6.330470    2.550533    -13.151391    11.327055    2.253266    21.264713    2.408472    21.949385    -15.779160    4.420075    18.568048    -0.816507    17.559954    -8.558246    -28.987745    10.652287    -26.247641    52.651260    -8.700315    -32.010670    53.318832    0.296108    -14.528548    -6.063542    7.144814    24.174734    19.352900    24.685522    50.444679    26.159113    -5.100060    82.547066    44.479191    -26.137430    4.185781    30.455889    -2.525999    14.207424    -18.572264    29.892340    13.474404    -14.348214    -9.954032    15.910907    0.000000    0.000000    0.000000    -27.887600    -8.368198    -17.562250    8.581860    37.986031    -7.155744    21.283373    1.517522    2.421487    0.000000    0.000000    0.000000    
-0.588564    0.839721    0.715291    -11.423774    -1.300698    -83.435875    4.798467    6.135747    2.998001    -12.426026    11.222670    2.309489    20.758223    2.342548    21.720081    -14.750994    4.478018    18.490095    -2.894934    18.696251    -5.726825    -29.332653    11.872958    -27.960722    59.670197    -11.742358    -33.465534    50.998478    1.585875    -13.643051    -5.449629    9.328151    23.984554    20.373062    25.155626    47.089050    27.565041    -5.201592    86.455589    45.924255    -27.560558    8.068847    30.905952    -2.620525    14.622921    -18.808094    29.921978    13.762994    -14.343184    -9.959726    15.518660    0.000000    0.000000    0.000000    -27.681257    -8.622616    -17.845055    8.488967    37.845024    -7.060241    21.240604    1.734932    2.667557    0.000000    0.000000    0.000000    
-0.582333    0.837901    0.717979    -10.259535    -0.745658    -80.092186    5.807624    5.869195    0.860186    -12.288110    10.012254    1.465047    20.000708    2.664257    21.244236    -13.521893    4.164867    18.232491    -4.994354    19.611437    -3.559532    -29.923729    11.994515    -28.859640    63.082253    -17.724285    -37.723106    54.847237    0.498030    -11.280374    -4.405437    11.603196    23.698465    21.537523    25.177443    43.130108    25.754892    -5.031372    88.213089    47.462044    -26.560797    7.477084    32.082703    -6.590691    9.360437    -22.711090    29.818142    15.319656    -12.624467    -10.955114    18.385939    0.000000    0.000000    0.000000    -28.305431    -8.058663    -22.014357    8.486858    37.787952    -6.989089    21.251234    2.532333    3.103398    0.000000    0.000000    0.000000    
-0.589657    0.839351    0.716300    -10.682580    -0.634830    -83.137619    4.290302    5.421519    3.885991    -10.486773    10.760046    2.351880    19.198698    3.050846    20.733099    -12.561163    3.907251    17.935736    -7.500094    20.481905    -1.466861    -30.139078    12.799945    -30.063307    71.882614    -17.022278    -37.687222    54.712181    4.417966    -13.927352    -3.524961    14.137451    23.116804    22.492365    24.276381    39.293274    24.594685    -4.003884    89.498077    48.680447    -25.081089    7.156693    32.895710    -2.660227    12.516388    -22.664133    28.472296    15.136576    -13.099142    -10.356452    16.953012    0.000000    0.000000    0.000000    -27.283508    -8.675277    -18.899794    8.372469    37.306889    -5.817869    21.257618    1.452772    2.089760    0.000000    0.000000    0.000000    
